<svg width="168" height="18" viewBox="0 0 168 18" fill="none" xmlns="http://www.w3.org/2000/svg">
<path d="M0 0.192H6.024C7.336 0.192 8.488 0.4 9.48 0.816C10.488 1.216 11.328 1.792 12 2.544C12.672 3.28 13.176 4.176 13.512 5.232C13.848 6.272 14.016 7.424 14.016 8.688C14 9.952 13.824 11.104 13.488 12.144C13.152 13.184 12.648 14.08 11.976 14.832C11.32 15.568 10.496 16.144 9.504 16.56C8.512 16.96 7.352 17.16 6.024 17.16H0V0.192ZM2.088 2.088V15.264H5.88C6.744 15.264 7.568 15.136 8.352 14.88C9.152 14.608 9.832 14.136 10.392 13.464C10.904 12.872 11.28 12.176 11.52 11.376C11.76 10.56 11.88 9.664 11.88 8.688C11.88 7.68 11.76 6.784 11.52 6C11.28 5.216 10.92 4.536 10.44 3.96C9.96 3.384 9.352 2.928 8.616 2.592C7.88 2.256 7.008 2.088 6 2.088H2.088Z" fill="url(#paint0_linear_1231_3526)"/>
<path d="M18.8814 10.8V17.16H16.7934V0.192H23.1534C24.0814 0.192 24.9214 0.288 25.6734 0.48C26.4254 0.672 27.0654 0.976 27.5934 1.392C28.1214 1.808 28.5214 2.36 28.7934 3.048C29.0814 3.72 29.2254 4.536 29.2254 5.496C29.2254 6.2 29.1214 6.832 28.9134 7.392C28.7054 7.936 28.4254 8.416 28.0734 8.832C27.7374 9.232 27.3374 9.568 26.8734 9.84C26.4094 10.096 25.9294 10.296 25.4334 10.44L28.9854 17.16H26.7054L23.3214 10.8H18.8814ZM22.4814 8.904C23.1054 8.904 23.6894 8.856 24.2334 8.76C24.7934 8.664 25.2814 8.488 25.6974 8.232C26.1134 7.976 26.4414 7.632 26.6814 7.2C26.9374 6.752 27.0734 6.16 27.0894 5.424C27.0894 4.208 26.7294 3.352 26.0094 2.856C25.3054 2.344 24.2814 2.088 22.9374 2.088H18.8814V8.904H22.4814Z" fill="url(#paint1_linear_1231_3526)"/>
<path d="M33.0703 14.472C33.4863 14.472 33.8303 14.608 34.1023 14.88C34.3743 15.152 34.5103 15.496 34.5103 15.912C34.5103 16.328 34.3743 16.672 34.1023 16.944C33.8303 17.216 33.4863 17.352 33.0703 17.352C32.6543 17.352 32.3103 17.216 32.0383 16.944C31.7663 16.672 31.6303 16.328 31.6303 15.912C31.6303 15.496 31.7663 15.152 32.0383 14.88C32.3103 14.608 32.6543 14.472 33.0703 14.472Z" fill="url(#paint2_linear_1231_3526)"/>
<path d="M37.7241 17.16V0.192H40.8921L45.9801 9.528L50.9961 0.192H54.0921V17.16H52.0041V2.4L46.4121 12.72H45.4521L39.8121 2.4V17.16H37.7241Z" fill="url(#paint3_linear_1231_3526)"/>
<path d="M67.7348 0.192H70.1108L64.1348 10.776V17.16H62.0468V10.8L56.0468 0.192H58.4708L63.1268 8.688L67.7348 0.192Z" fill="url(#paint4_linear_1231_3526)"/>
<path d="M75.7569 17.16V2.088H70.3089V0.192H83.2929V2.088H77.8449V17.16H75.7569Z" fill="url(#paint5_linear_1231_3526)"/>
<path d="M90.8906 1.896C90.4426 1.896 89.9866 1.936 89.5226 2.016C89.0746 2.096 88.6666 2.24 88.2986 2.448C87.9306 2.64 87.6266 2.912 87.3866 3.264C87.1626 3.6 87.0506 4.032 87.0506 4.56C87.0506 5.2 87.2186 5.72 87.5546 6.12C87.8906 6.504 88.2986 6.8 88.7786 7.008C89.1626 7.168 89.5706 7.304 90.0026 7.416C90.4346 7.528 90.8746 7.632 91.3226 7.728C91.7866 7.824 92.2346 7.92 92.6666 8.016C93.1146 8.112 93.5466 8.232 93.9626 8.376C94.9386 8.712 95.7146 9.192 96.2906 9.816C96.8826 10.44 97.1786 11.264 97.1786 12.288C97.1786 13.248 97.0106 14.04 96.6746 14.664C96.3546 15.288 95.9146 15.8 95.3546 16.2C94.8106 16.6 94.1706 16.896 93.4346 17.088C92.7146 17.264 91.9466 17.352 91.1306 17.352C90.3146 17.352 89.5306 17.272 88.7786 17.112C88.0426 16.952 87.3706 16.688 86.7626 16.32C86.1546 15.952 85.6346 15.472 85.2026 14.88C84.7706 14.288 84.4666 13.568 84.2906 12.72H86.4746C86.6346 13.264 86.8826 13.712 87.2186 14.064C87.5546 14.416 87.9386 14.696 88.3706 14.904C88.8026 15.112 89.2666 15.256 89.7626 15.336C90.2746 15.416 90.7786 15.456 91.2746 15.456C91.7546 15.456 92.2186 15.408 92.6666 15.312C93.1306 15.2 93.5386 15.032 93.8906 14.808C94.2426 14.584 94.5226 14.296 94.7306 13.944C94.9386 13.592 95.0426 13.168 95.0426 12.672C95.0426 11.92 94.8426 11.36 94.4426 10.992C94.0426 10.624 93.5066 10.344 92.8346 10.152C92.3866 10.008 91.9146 9.888 91.4186 9.792C90.9226 9.696 90.4266 9.592 89.9306 9.48C89.4346 9.368 88.9466 9.24 88.4666 9.096C87.9866 8.936 87.5466 8.752 87.1466 8.544C86.5066 8.24 85.9706 7.776 85.5386 7.152C85.1066 6.512 84.8906 5.712 84.8906 4.752C84.8906 3.856 85.0666 3.104 85.4186 2.496C85.7706 1.888 86.2266 1.4 86.7866 1.032C87.3466 0.664 87.9706 0.4 88.6586 0.24C89.3626 0.0799999 90.1066 0 90.8906 0C91.5306 0.0159998 92.1066 0.072 92.6186 0.168001C93.1466 0.248001 93.6426 0.400001 94.1066 0.624001C94.8266 0.944 95.4266 1.424 95.9066 2.064C96.3866 2.704 96.6506 3.528 96.6986 4.536H94.6586C94.5946 4.04 94.4426 3.624 94.2026 3.288C93.9786 2.952 93.6986 2.68 93.3626 2.472C93.0266 2.264 92.6426 2.12 92.2106 2.04C91.7946 1.944 91.3546 1.896 90.8906 1.896Z" fill="url(#paint6_linear_1231_3526)"/>
<path d="M112.056 1.896C111.608 1.896 111.152 1.936 110.688 2.016C110.24 2.096 109.832 2.24 109.464 2.448C109.096 2.64 108.792 2.912 108.552 3.264C108.328 3.6 108.216 4.032 108.216 4.56C108.216 5.2 108.384 5.72 108.72 6.12C109.056 6.504 109.464 6.8 109.944 7.008C110.328 7.168 110.736 7.304 111.168 7.416C111.6 7.528 112.04 7.632 112.488 7.728C112.952 7.824 113.4 7.92 113.832 8.016C114.28 8.112 114.712 8.232 115.128 8.376C116.104 8.712 116.88 9.192 117.456 9.816C118.048 10.44 118.344 11.264 118.344 12.288C118.344 13.248 118.176 14.04 117.84 14.664C117.52 15.288 117.08 15.8 116.52 16.2C115.976 16.6 115.336 16.896 114.6 17.088C113.88 17.264 113.112 17.352 112.296 17.352C111.48 17.352 110.696 17.272 109.944 17.112C109.208 16.952 108.536 16.688 107.928 16.32C107.32 15.952 106.8 15.472 106.368 14.88C105.936 14.288 105.632 13.568 105.456 12.72H107.64C107.8 13.264 108.048 13.712 108.384 14.064C108.72 14.416 109.104 14.696 109.536 14.904C109.968 15.112 110.432 15.256 110.928 15.336C111.44 15.416 111.944 15.456 112.44 15.456C112.92 15.456 113.384 15.408 113.832 15.312C114.296 15.2 114.704 15.032 115.056 14.808C115.408 14.584 115.688 14.296 115.896 13.944C116.104 13.592 116.208 13.168 116.208 12.672C116.208 11.92 116.008 11.36 115.608 10.992C115.208 10.624 114.672 10.344 114 10.152C113.552 10.008 113.08 9.888 112.584 9.792C112.088 9.696 111.592 9.592 111.096 9.48C110.6 9.368 110.112 9.24 109.632 9.096C109.152 8.936 108.712 8.752 108.312 8.544C107.672 8.24 107.136 7.776 106.704 7.152C106.272 6.512 106.056 5.712 106.056 4.752C106.056 3.856 106.232 3.104 106.584 2.496C106.936 1.888 107.392 1.4 107.952 1.032C108.512 0.664 109.136 0.4 109.824 0.24C110.528 0.0799999 111.272 0 112.056 0C112.696 0.0159998 113.272 0.072 113.784 0.168001C114.312 0.248001 114.808 0.400001 115.272 0.624001C115.992 0.944 116.592 1.424 117.072 2.064C117.552 2.704 117.816 3.528 117.864 4.536H115.824C115.76 4.04 115.608 3.624 115.368 3.288C115.144 2.952 114.864 2.68 114.528 2.472C114.192 2.264 113.808 2.12 113.376 2.04C112.96 1.944 112.52 1.896 112.056 1.896Z" fill="url(#paint7_linear_1231_3526)"/>
<path d="M132.536 7.872V0.192H134.624V17.16H132.536V9.792H123.44V17.16H121.352V0.192H123.44V7.872H132.536Z" fill="url(#paint8_linear_1231_3526)"/>
<path d="M145.365 17.352C144.037 17.352 142.877 17.136 141.885 16.704C140.893 16.256 140.061 15.648 139.389 14.88C138.717 14.112 138.213 13.2 137.877 12.144C137.541 11.088 137.373 9.936 137.373 8.688C137.373 7.44 137.541 6.288 137.877 5.232C138.213 4.16 138.717 3.24 139.389 2.472C140.061 1.704 140.893 1.104 141.885 0.672C142.877 0.224 144.037 0 145.365 0C146.677 0 147.829 0.224 148.821 0.672C149.813 1.104 150.645 1.704 151.317 2.472C151.989 3.24 152.493 4.16 152.829 5.232C153.165 6.288 153.333 7.44 153.333 8.688C153.333 9.936 153.165 11.088 152.829 12.144C152.493 13.2 151.989 14.112 151.317 14.88C150.645 15.648 149.813 16.256 148.821 16.704C147.829 17.136 146.677 17.352 145.365 17.352ZM145.365 1.896C144.357 1.896 143.485 2.08 142.749 2.448C142.013 2.8 141.405 3.288 140.925 3.912C140.445 4.536 140.085 5.264 139.845 6.096C139.605 6.912 139.485 7.776 139.485 8.688C139.485 9.6 139.597 10.464 139.821 11.28C140.061 12.096 140.421 12.816 140.901 13.44C141.381 14.064 141.989 14.56 142.725 14.928C143.477 15.28 144.357 15.456 145.365 15.456C146.373 15.456 147.245 15.28 147.981 14.928C148.717 14.56 149.317 14.072 149.781 13.464C150.261 12.84 150.613 12.12 150.837 11.304C151.077 10.488 151.197 9.616 151.197 8.688C151.197 7.76 151.077 6.888 150.837 6.072C150.613 5.24 150.261 4.52 149.781 3.912C149.301 3.288 148.693 2.8 147.957 2.448C147.221 2.08 146.357 1.896 145.365 1.896Z" fill="url(#paint9_linear_1231_3526)"/>
<path d="M156.087 0.192H161.967C163.839 0.192 165.303 0.656 166.359 1.584C167.415 2.496 167.943 3.912 167.943 5.832C167.943 6.808 167.767 7.664 167.415 8.4C167.079 9.136 166.607 9.744 165.999 10.224C165.487 10.64 164.847 10.968 164.079 11.208C163.311 11.448 162.463 11.568 161.535 11.568H158.175V17.16H156.087V0.192ZM161.439 9.672C162.047 9.672 162.639 9.6 163.215 9.456C163.791 9.296 164.263 9.048 164.631 8.712C164.999 8.392 165.287 8 165.495 7.536C165.703 7.072 165.807 6.472 165.807 5.736C165.807 3.304 164.495 2.088 161.871 2.088H158.175V9.672H161.439Z" fill="url(#paint10_linear_1231_3526)"/>
<defs>
<linearGradient id="paint0_linear_1231_3526" x1="98.1668" y1="25.3853" x2="96.0675" y2="-5.64197" gradientUnits="userSpaceOnUse">
<stop stop-color="#C52226"/>
<stop offset="1" stop-color="#FB6262"/>
</linearGradient>
<linearGradient id="paint1_linear_1231_3526" x1="98.1668" y1="25.3853" x2="96.0675" y2="-5.64197" gradientUnits="userSpaceOnUse">
<stop stop-color="#C52226"/>
<stop offset="1" stop-color="#FB6262"/>
</linearGradient>
<linearGradient id="paint2_linear_1231_3526" x1="98.1668" y1="25.3853" x2="96.0675" y2="-5.64197" gradientUnits="userSpaceOnUse">
<stop stop-color="#C52226"/>
<stop offset="1" stop-color="#FB6262"/>
</linearGradient>
<linearGradient id="paint3_linear_1231_3526" x1="98.1668" y1="25.3853" x2="96.0675" y2="-5.64197" gradientUnits="userSpaceOnUse">
<stop stop-color="#C52226"/>
<stop offset="1" stop-color="#FB6262"/>
</linearGradient>
<linearGradient id="paint4_linear_1231_3526" x1="98.1668" y1="25.3853" x2="96.0675" y2="-5.64197" gradientUnits="userSpaceOnUse">
<stop stop-color="#C52226"/>
<stop offset="1" stop-color="#FB6262"/>
</linearGradient>
<linearGradient id="paint5_linear_1231_3526" x1="98.1668" y1="25.3853" x2="96.0675" y2="-5.64197" gradientUnits="userSpaceOnUse">
<stop stop-color="#C52226"/>
<stop offset="1" stop-color="#FB6262"/>
</linearGradient>
<linearGradient id="paint6_linear_1231_3526" x1="98.1668" y1="25.3853" x2="96.0675" y2="-5.64197" gradientUnits="userSpaceOnUse">
<stop stop-color="#C52226"/>
<stop offset="1" stop-color="#FB6262"/>
</linearGradient>
<linearGradient id="paint7_linear_1231_3526" x1="98.1668" y1="25.3853" x2="96.0675" y2="-5.64197" gradientUnits="userSpaceOnUse">
<stop stop-color="#C52226"/>
<stop offset="1" stop-color="#FB6262"/>
</linearGradient>
<linearGradient id="paint8_linear_1231_3526" x1="98.1668" y1="25.3853" x2="96.0675" y2="-5.64197" gradientUnits="userSpaceOnUse">
<stop stop-color="#C52226"/>
<stop offset="1" stop-color="#FB6262"/>
</linearGradient>
<linearGradient id="paint9_linear_1231_3526" x1="98.1668" y1="25.3853" x2="96.0675" y2="-5.64197" gradientUnits="userSpaceOnUse">
<stop stop-color="#C52226"/>
<stop offset="1" stop-color="#FB6262"/>
</linearGradient>
<linearGradient id="paint10_linear_1231_3526" x1="98.1668" y1="25.3853" x2="96.0675" y2="-5.64197" gradientUnits="userSpaceOnUse">
<stop stop-color="#C52226"/>
<stop offset="1" stop-color="#FB6262"/>
</linearGradient>
</defs>
</svg>
